<?xml version="1.0" standalone="no"?>
<svg xmlns:xlink="http://www.w3.org/1999/xlink" width="46" height="46" viewBox="0 0 64 64" id="fill" xmlns="http://www.w3.org/2000/svg"><path d="M51.129,3H8A5,5,0,0,0,3,8v5H13V59H57V8.871A5.87,5.87,0,0,0,51.129,3Z" style="fill: #ffffff" id="element_70bc177e"/><path d="M51.129,3H8A5,5,0,0,0,3,8v5H13V59h0A44,44,0,0,0,57,15V8.871A5.87,5.87,0,0,0,51.129,3Z" style="fill: #ffffff" id="element_60e55935"/><polygon points="49 44 37 56 41 56 41 61 49 53 57 61 57 55 61 55 49 44" style="fill: #ae0404" id="element_339ce48a"/><rect height="2" style="fill:#444" width="30" x="20" y="19" id="element_423e7865"/><rect height="2" style="fill:#444" width="30" x="20" y="25" id="element_da5d8327"/><rect height="2" style="fill:#444" width="30" x="20" y="31" id="element_761f0c17"/><rect height="2" style="fill:#444" width="30" x="20" y="37" id="element_4da1051a"/><circle cx="35" cy="12" r="3" style="fill:#fff" id="element_55415f70"/><path d="M8,3H8a5,5,0,0,1,5,5v5a0,0,0,0,1,0,0H3a0,0,0,0,1,0,0V8A5,5,0,0,1,8,3Z" style="fill: #ffffff" id="element_6e517c51"/><circle cx="49" cy="49" r="6" style="fill: #e30202" id="element_85cf8b5c"/><circle cx="49" cy="49" r="4" style="fill: #ffcccc" id="element_8963eddb"/><polygon points="44 58 42 60 56 60 54 58 44 58" id="element_2e32fa2e"/><path d="M51.129,2H8A6.006,6.006,0,0,0,2,8v5a1,1,0,0,0,1,1h9V59a1,1,0,0,0,1,1H41V58H14V8a5.969,5.969,0,0,0-1.54-4H51.129A4.877,4.877,0,0,1,56,8.871V50.417l2,1.833V8.871A6.878,6.878,0,0,0,51.129,2ZM12,12H4V8a4,4,0,0,1,8,0Z" id="element_f5b9331d"/><rect height="2" width="30" x="20" y="19" id="element_1d931f0a"/><rect height="2" width="30" x="20" y="25" id="element_319d9339"/><rect height="2" width="30" x="20" y="31" id="element_3fcab5c9"/><rect height="2" width="30" x="20" y="37" id="element_b024bfe1"/><path d="M39,12a4,4,0,1,0-4,4A4,4,0,0,0,39,12Zm-6,0a2,2,0,1,1,2,2A2,2,0,0,1,33,12Z" id="element_0c5c97bb"/></svg>